<svg width="16" height="16" viewBox="0 0 16 16" fill="none" xmlns="http://www.w3.org/2000/svg">
<path d="M3.29279 3.29232C3.90993 2.67136 4.64396 2.17862 5.45255 1.84251C6.26115 1.5064 7.12832 1.33357 8.00407 1.33399C11.6897 1.33399 14.6666 4.31732 14.6666 8.00065C14.6666 11.684 11.6897 14.6673 8.00407 14.6673C4.89379 14.6673 2.3005 12.5423 1.55837 9.66732H3.29279C3.63628 10.6419 4.27395 11.486 5.11781 12.083C5.96167 12.6801 6.97014 13.0007 8.00407 13.0007C10.7641 13.0007 13.0072 10.759 13.0072 8.00065C13.0072 5.24232 10.7641 3.00065 8.00407 3.00065C6.61987 3.00065 5.38577 3.57565 4.4852 4.48398L7.17021 7.16732H1.33323V1.33399L3.29279 3.29232Z" fill="#003294"/>
</svg>
